<?xml version="1.0"?>
<svg width="21" height="28" xmlns="http://www.w3.org/2000/svg" xmlns:svg="http://www.w3.org/2000/svg">
 <g class="layer">
  <title>Layer 1</title>
  <path d="m2.66,14.57l0,0l0,-0.01c-0.04,-0.09 -0.76,-1.86 -0.76,-3.52c0,-5.04 3.99,-9.15 8.89,-9.15c4.9,0 8.89,4.11 8.89,9.15c0,1.67 -0.73,3.45 -0.76,3.52l0,0c-0.23,0.56 -0.69,1.45 -1.02,1.97l0,0l-6.03,9.41c0,0 0,0 0,0c-0.26,0.41 -0.66,0.65 -1.08,0.65c-0.42,0 -0.82,-0.24 -1.08,-0.65l-7.06,-11.38zm0,0c0.23,0.56 0.69,1.45 1.02,1.97l0,0l6.03,9.41l-7.06,-11.38zm15.15,-0.49l0.01,0l0,0c0,0 0,-0.01 0,-0.02c0.01,-0.01 0.02,-0.03 0.03,-0.06c0.02,-0.05 0.04,-0.12 0.07,-0.2c0.06,-0.18 0.14,-0.43 0.22,-0.72c0.17,-0.58 0.33,-1.33 0.33,-2.04c0,-4.36 -3.44,-7.9 -7.68,-7.9c-4.23,0 -7.68,3.54 -7.68,7.9c0,1.4 0.65,3.02 0.66,3.03l0,0l-0.08,0.04l7.11,11.31l7,-11.35zm0,0c-0.2,0.5 -0.62,1.31 -0.92,1.78l-6.03,9.41l0,0m6.95,-11.18l-6.95,11.18m0,0c-0.03,0.04 -0.04,0.06 -0.06,0.08l0.06,-0.08z" fill="white" id="svg_1" stroke="white" stroke-width="0.2"/>
  <path d="m10.79,5.35c-2.91,0 -5.28,2.37 -5.28,5.29c0,2.91 2.37,5.28 5.28,5.28c2.91,0 5.28,-2.37 5.28,-5.28c0,-2.92 -2.37,-5.29 -5.28,-5.29zm0,9.22c-2.17,0 -3.93,-1.77 -3.93,-3.93c0,-2.17 1.76,-3.93 3.93,-3.93c2.17,0 3.93,1.76 3.93,3.93c0,2.16 -1.76,3.93 -3.93,3.93z" fill="white" id="svg_2" stroke="white" stroke-width="0.2"/>
 </g>
</svg>